<?xml version="1.0" standalone="no"?>
<!DOCTYPE svg PUBLIC "-//W3C//DTD SVG 20010904//EN"
 "http://www.w3.org/TR/2001/REC-SVG-20010904/DTD/svg10.dtd">
<svg version="1.0" xmlns="http://www.w3.org/2000/svg"
 width="728.000000pt" height="430.000000pt" viewBox="0 0 728.000000 430.000000"
 preserveAspectRatio="xMidYMid meet">
<metadata>
Created by potrace 1.15, written by Peter Selinger 2001-2017
</metadata>
<g transform="translate(0.000000,430.000000) scale(0.100000,-0.100000)"
fill="#000000" stroke="none">
<path d="M0 3604 l0 -697 77 7 c106 10 317 23 324 20 3 -2 3 -22 0 -46 l-6
-43 -95 -8 c-52 -5 -129 -10 -170 -11 -139 -6 -130 -4 -130 -31 0 -24 3 -27
33 -29 23 -2 36 -20 21 -31 -10 -8 -8 -14 12 -28 l24 -18 1 38 c1 33 2 34 8
13 4 -15 14 -24 23 -22 34 5 42 -26 41 -154 -1 -107 -4 -130 -22 -160 -12 -19
-21 -37 -21 -39 0 -2 45 -4 101 -4 110 -1 119 -3 119 -30 0 -21 89 -50 180
-58 30 -3 58 -8 62 -12 4 -4 3 -22 -3 -41 -5 -19 -16 -75 -24 -125 -8 -49 -25
-119 -38 -155 -14 -36 -28 -96 -31 -135 -9 -86 -29 -154 -67 -221 -27 -48 -38
-103 -21 -105 21 -1 74 -7 128 -13 36 -5 85 -3 120 4 67 13 163 10 129 -4 -11
-4 -42 -18 -70 -31 -27 -12 -70 -30 -95 -40 -25 -9 -52 -23 -61 -31 -8 -8 -51
-23 -93 -34 -43 -11 -92 -28 -110 -39 -17 -10 -84 -37 -148 -60 -65 -22 -136
-50 -158 -61 l-40 -20 0 -134 0 -133 168 4 c92 2 224 3 293 2 89 -1 145 4 190
16 35 9 120 21 189 26 69 5 145 13 170 17 194 36 393 100 509 165 145 81 172
94 231 117 30 11 64 25 75 30 97 46 372 106 393 85 4 -3 7 -45 7 -93 l1 -87
39 -7 c79 -14 491 -22 499 -10 4 7 9 69 12 139 6 191 9 205 45 225 17 10 28
22 25 27 -3 5 -2 20 3 33 9 22 10 22 17 -10 10 -48 36 -54 120 -31 38 10 77
19 87 19 16 0 16 -2 2 -30 -20 -39 -19 -61 4 -67 11 -3 21 -15 23 -27 2 -16
11 -22 40 -24 44 -4 47 -10 50 -117 l3 -70 50 -1 c139 -2 166 -5 169 -16 2 -7
8 -40 14 -72 7 -33 21 -76 32 -98 11 -21 17 -38 14 -38 -3 0 8 -11 23 -25 17
-15 23 -24 14 -25 -11 0 -8 -6 7 -20 12 -12 22 -25 22 -31 0 -6 5 -7 10 -4 6
3 10 -1 10 -10 0 -11 5 -15 15 -11 12 4 15 -3 15 -33 0 -21 3 -54 6 -72 4 -24
3 -30 -4 -20 -11 16 -32 6 -32 -15 0 -21 -21 -17 -27 6 -7 25 -15 25 -31 -1
-8 -12 -19 -18 -28 -15 -9 4 -18 -3 -24 -18 -5 -14 -15 -28 -23 -33 -8 -4 -17
-15 -20 -23 -4 -12 -6 -11 -6 3 -1 17 -41 26 -41 8 0 -5 -13 -11 -30 -13 -19
-3 -30 0 -30 7 0 7 -9 20 -20 30 -16 14 -20 15 -24 4 -2 -8 -7 -22 -9 -31 -4
-12 -17 -17 -47 -16 -36 0 -41 3 -37 20 4 13 1 18 -8 15 -7 -3 -18 0 -24 6 -8
8 -11 8 -11 -1 0 -7 5 -12 10 -12 6 0 10 -4 10 -9 0 -5 -12 -8 -26 -8 -21 0
-25 3 -20 19 3 14 -1 22 -15 25 -29 8 -12 23 27 23 19 0 34 4 34 10 0 11 -92
6 -111 -6 -8 -5 -27 -9 -44 -9 -20 0 -31 -6 -33 -17 -3 -14 1 -16 15 -12 15 6
15 4 -2 -8 -28 -21 -84 -13 -78 12 3 12 11 16 26 13 21 -5 21 -5 4 13 -15 16
-19 17 -27 5 -5 -9 -27 -16 -51 -17 -23 -1 -38 1 -33 4 5 4 10 15 10 24 1 14
-4 17 -25 12 -29 -7 -64 -34 -43 -34 7 0 12 -4 12 -10 0 -5 -7 -10 -15 -10 -8
0 -15 -9 -15 -19 0 -25 -17 -36 -34 -21 -11 8 -15 8 -19 -2 -3 -7 -6 -3 -6 10
-1 22 -11 28 -25 15 -3 -4 -28 -9 -54 -11 -77 -6 -72 -20 10 -31 29 -3 52 -10
50 -16 -4 -18 -49 -23 -92 -12 -37 10 -43 10 -56 -8 -13 -18 -29 -19 -225 -21
-152 -1 -213 -5 -218 -13 -5 -8 -18 -10 -36 -5 -18 5 -30 2 -36 -7 -11 -18
-132 -20 -125 -2 3 6 -2 17 -10 23 -8 8 -14 8 -14 2 0 -13 -59 -34 -73 -25
-23 14 -56 11 -59 -5 -3 -13 -9 -10 -31 13 -23 26 -30 28 -47 17 -24 -15 -50
-16 -50 -1 0 8 -19 9 -62 3 -73 -9 -101 -9 -223 4 -64 7 -92 7 -97 -1 -5 -8
-13 -8 -30 2 -17 9 -31 9 -50 2 -15 -5 -39 -8 -54 -5 -16 3 -31 0 -35 -8 -6
-9 -9 -8 -9 6 0 14 -3 16 -13 7 -8 -6 -17 -8 -20 -4 -4 3 -7 1 -7 -5 0 -7 -10
-8 -27 -3 -40 10 -73 2 -73 -17 0 -15 -2 -15 -10 -2 -6 10 -10 11 -10 3 0 -18
-29 -16 -36 2 -8 19 -20 19 -28 -1 -3 -8 -2 -13 3 -10 5 3 14 -1 21 -8 9 -12
5 -18 -22 -32 l-33 -17 28 -9 c15 -6 27 -14 27 -19 0 -11 -21 -11 -39 0 -8 5
-27 3 -48 -6 -39 -16 -58 -9 -30 12 10 7 16 19 15 26 -2 8 10 15 30 19 33 5
33 5 12 22 -22 20 -25 33 -9 44 15 9 -9 24 -38 24 -15 0 -21 -5 -17 -14 10
-26 -16 -27 -28 -1 -9 21 -9 28 1 34 9 6 7 10 -8 14 -13 3 -21 0 -21 -8 0 -14
-22 -25 -51 -25 -11 0 -19 -7 -19 -17 0 -16 -2 -16 -11 -3 -8 11 -12 12 -16 3
-7 -19 -34 -16 -27 2 7 17 -21 21 -31 5 -3 -5 -12 -7 -19 -4 -9 3 -17 -3 -21
-15 -4 -12 -15 -21 -26 -21 -11 0 -18 4 -15 9 8 12 -13 28 -47 36 -31 8 -36
25 -7 25 11 0 20 5 20 10 0 10 -21 13 -87 12 -29 0 -33 3 -33 26 0 29 6 27
-94 23 -24 -1 -27 -4 -22 -25 5 -21 2 -24 -35 -30 -22 -4 -42 -13 -46 -22 -3
-9 -16 -20 -29 -25 l-24 -9 0 -285 0 -285 1340 0 1340 0 0 24 c0 16 7 26 23
30 37 10 115 7 123 -5 4 -8 -6 -9 -37 -5 -38 5 -40 4 -19 -5 80 -36 100 -41
132 -34 37 8 62 8 165 -1 54 -4 77 -2 95 9 34 22 84 30 108 17 11 -6 18 -15
15 -20 -3 -6 791 -9 1995 -10 l2000 0 0 214 c0 162 -3 216 -13 219 -9 4 -9 6
1 6 7 1 12 14 12 31 0 27 -3 30 -32 31 -18 1 -36 1 -40 0 -5 0 -8 6 -8 14 0 9
-9 15 -24 15 -13 0 -29 7 -36 15 -9 10 -9 15 -1 15 6 0 11 5 11 10 0 14 -28
12 -33 -2 -2 -7 -3 20 -2 60 2 75 1 75 -46 72 -17 -1 -29 5 -33 16 -4 10 -13
14 -25 11 -12 -3 -22 1 -26 11 -5 14 -7 14 -15 2 -6 -8 -10 -10 -10 -4 0 16
-90 27 -106 13 -16 -13 -34 -4 -34 17 0 17 -20 19 -21 2 -1 -7 -4 -2 -8 12 -6
21 -12 24 -40 22 -18 -2 -38 2 -46 8 -8 7 -19 9 -25 5 -16 -10 -48 4 -53 23
-3 9 -5 3 -6 -15 -1 -37 -14 -49 -31 -28 -7 8 -16 12 -21 9 -5 -3 -9 0 -9 7 0
9 -3 9 -14 0 -9 -8 -21 -8 -40 -1 -32 12 -34 30 -3 30 30 0 35 5 30 33 -4 18
-11 22 -41 22 -39 0 -54 -23 -33 -49 14 -17 2 -29 -16 -14 -18 15 -29 2 -14
-16 9 -11 9 -16 0 -21 -6 -4 -15 -2 -19 5 -9 15 -96 5 -106 -12 -9 -15 -24 11
-24 44 0 14 6 29 13 31 6 3 2 6 -11 6 -13 1 -21 -2 -19 -6 6 -10 -59 -11 -68
-2 -8 9 -65 -13 -65 -24 0 -5 7 -7 15 -3 8 3 15 1 15 -3 0 -5 9 -7 20 -4 26 7
25 -5 -1 -28 -24 -20 -39 -17 -39 9 0 12 -3 13 -12 4 -7 -7 -21 -12 -31 -12
-15 0 -18 5 -15 24 4 21 0 25 -36 31 -40 8 -77 7 -85 -1 -11 -10 22 -31 43
-27 27 5 45 -25 24 -39 -24 -15 -55 -8 -82 18 -23 24 -28 25 -55 14 -26 -10
-28 -14 -18 -31 8 -13 23 -19 52 -19 22 0 35 -4 28 -8 -10 -6 -77 -8 -119 -3
-7 0 -14 11 -18 23 -5 19 -8 20 -15 8 -5 -8 -7 -18 -5 -22 3 -4 1 -8 -5 -8 -5
0 -12 6 -14 13 -4 9 -8 8 -16 -3 -9 -13 -11 -13 -11 2 0 20 -19 34 -29 22 -19
-27 -50 -33 -110 -22 -52 10 -63 9 -78 -4 -13 -12 -41 -17 -98 -18 -112 -3
-114 -2 -170 8 -37 8 -53 7 -60 -2 -10 -11 -19 -12 -80 -2 -18 2 -37 -2 -47
-11 -10 -9 -22 -12 -30 -7 -7 5 -51 9 -98 10 -47 1 -100 4 -117 8 -19 5 -33 4
-33 -2 0 -5 -14 -7 -32 -3 -18 4 -54 4 -80 1 -27 -4 -48 -2 -48 3 0 5 -7 7
-15 3 -22 -8 -18 12 5 24 14 8 20 8 20 0 0 -7 8 -9 23 -4 12 4 36 7 52 6 17 0
23 2 15 5 -8 4 -20 13 -27 22 -16 22 3 32 45 25 20 -4 32 -2 32 5 0 17 -32 28
-70 24 -31 -3 -33 -2 -18 10 10 8 15 17 11 20 -3 4 -1 7 6 7 17 0 60 51 61 72
0 9 13 39 28 65 16 26 31 56 35 66 4 12 13 16 24 13 158 -46 1023 -67 1267
-30 54 9 102 30 110 49 20 54 -12 88 -121 129 -43 16 -82 33 -88 36 -14 10
-126 45 -205 65 -36 9 -87 27 -115 40 -99 46 -231 97 -284 110 -30 8 -66 23
-80 33 -14 10 -46 25 -71 34 -25 8 -63 27 -84 42 -21 14 -45 26 -53 26 -16 0
-73 31 -73 40 0 3 56 7 126 8 79 2 138 9 159 18 19 8 51 14 72 14 21 0 55 3
76 7 38 6 39 7 34 42 -6 50 -53 239 -84 336 -14 44 -23 94 -21 110 3 30 4 30
78 36 95 8 269 43 307 62 15 8 66 24 112 36 106 29 151 50 151 72 0 20 27 22
551 44 48 2 96 8 107 14 13 7 115 11 281 12 144 0 261 4 261 9 0 7 -117 19
-190 19 -171 0 -186 1 -208 21 -24 22 -28 55 -13 104 5 17 13 45 18 61 5 17
15 29 21 27 7 -1 12 4 13 10 0 7 4 3 9 -9 14 -35 57 -12 80 45 14 33 40 28 40
-8 0 -41 11 -37 36 13 25 51 60 62 70 22 8 -34 -3 -44 -16 -14 l-10 24 3 -25
c2 -21 7 -25 30 -22 21 2 27 -1 27 -17 0 -15 4 -19 17 -14 11 4 12 8 5 11 -7
2 -12 8 -12 14 0 5 9 6 20 3 18 -6 20 -3 15 22 -4 15 -3 24 2 18 4 -5 16 -16
26 -24 16 -12 17 -9 17 43 l0 56 -39 0 c-22 0 -42 3 -45 8 -2 4 16 7 40 7 38
0 44 3 44 21 0 12 -10 26 -22 32 l-23 11 23 0 22 1 0 665 0 665 -302 -2 -301
-3 -28 -50 c-16 -30 -39 -56 -58 -65 -28 -14 -29 -16 -13 -27 15 -11 15 -12
-5 -12 -12 -1 -23 5 -26 12 -2 6 -8 9 -12 4 -5 -4 -3 -13 3 -19 17 -17 15 -31
-2 -25 -16 6 -69 -30 -62 -42 3 -4 -15 -30 -39 -58 -25 -28 -45 -57 -45 -65
-1 -18 -26 -49 -33 -41 -4 3 -7 -1 -7 -10 0 -10 -4 -17 -10 -17 -5 0 -10 -8
-10 -18 0 -11 -16 -25 -42 -37 -33 -15 -46 -28 -54 -54 -6 -19 -21 -46 -34
-60 -48 -56 -120 -165 -120 -182 0 -11 -7 -19 -15 -19 -8 0 -15 -5 -15 -11 0
-5 -4 -8 -9 -5 -10 7 -2 56 10 56 5 0 9 9 9 19 0 11 5 23 11 26 6 4 8 14 5 22
-4 9 -1 22 5 29 8 10 8 18 1 26 -10 12 -6 53 12 119 7 24 5 27 -18 27 -14 0
-32 5 -40 11 -20 17 -8 61 20 71 14 6 24 18 24 30 0 11 4 20 10 20 5 0 13 12
16 28 4 15 13 36 20 47 13 18 20 65 10 65 -13 0 -57 -50 -52 -58 3 -6 -1 -15
-9 -22 -8 -7 -12 -16 -10 -21 10 -15 -6 -57 -23 -64 -11 -4 -23 2 -34 14 -9
12 -20 21 -25 21 -17 0 -40 65 -35 100 2 19 5 52 6 72 0 21 10 47 21 60 21 25
32 68 16 68 -5 0 -11 -6 -14 -12 -3 -10 -8 -10 -21 1 -10 8 -14 21 -11 32 6
18 -67 19 -2705 19 l-2712 0 -33 -32 c-19 -17 -44 -56 -56 -86 -12 -29 -30
-70 -40 -90 -11 -20 -19 -43 -19 -52 0 -8 -9 -28 -20 -45 -11 -16 -20 -46 -20
-65 0 -29 -10 -46 -60 -97 -74 -78 -83 -93 -110 -172 -12 -36 -30 -76 -41 -89
-11 -15 -17 -33 -14 -44 7 -19 -2 -23 -23 -9 -10 6 -11 13 -4 27 22 41 32 105
26 154 -6 43 -3 59 19 103 23 47 36 110 54 272 7 62 -19 89 -85 88 l-50 -1 5
38 c6 42 -19 100 -42 100 -13 0 -15 -89 -15 -696z m5310 477 c26 -4 56 -17 71
-32 14 -13 39 -31 56 -40 22 -12 33 -27 38 -50 4 -19 16 -48 26 -65 12 -20 19
-50 19 -83 0 -28 7 -68 16 -89 35 -81 54 -185 58 -312 l1 -55 -48 2 c-34 2
-49 -2 -53 -12 -4 -8 -13 -15 -21 -15 -11 0 -13 -7 -9 -25 6 -24 5 -25 -14
-13 -11 7 -20 22 -20 34 0 26 -8 34 -26 27 -8 -3 -14 -16 -14 -29 0 -15 -6
-24 -15 -24 -21 0 -19 17 6 51 11 16 17 33 14 39 -11 18 -35 10 -47 -15 -12
-27 -34 -35 -24 -9 3 9 6 20 6 25 0 5 10 13 21 18 20 7 19 9 -14 24 l-35 17
19 72 c23 87 24 107 4 135 -11 16 -13 28 -5 48 20 54 6 125 -25 125 -8 0 -18
7 -23 16 -22 40 -257 10 -337 -43 -40 -27 -72 -32 -114 -18 -22 7 -23 6 -18
-21 3 -16 14 -60 25 -99 14 -54 20 -122 26 -299 6 -216 5 -228 -11 -221 -32
13 -63 18 -63 9 1 -5 24 -20 52 -34 81 -40 162 -167 199 -313 20 -79 21 -97
11 -180 -6 -51 -18 -114 -27 -141 -58 -171 -220 -322 -416 -390 -109 -37 -260
-66 -350 -66 -71 0 -95 6 -217 51 -75 28 -156 58 -180 66 -29 10 -67 38 -110
83 -85 85 -110 118 -156 205 -33 61 -39 83 -47 170 -18 198 45 371 186 508 44
43 71 60 112 72 29 9 51 20 48 25 -3 5 -22 3 -45 -5 -42 -15 -57 -7 -46 22 4
9 11 43 16 77 24 155 73 385 95 449 10 26 15 51 11 54 -3 4 -23 -3 -44 -14
-43 -24 -149 -38 -183 -24 -13 5 -36 12 -51 15 -14 3 -40 17 -56 31 -36 30
-81 32 -113 6 -22 -18 -24 -27 -24 -108 0 -64 -5 -97 -18 -122 -11 -22 -17
-57 -17 -96 0 -54 -3 -66 -27 -89 -20 -20 -27 -38 -29 -69 0 -23 -2 -44 -3
-47 0 -3 -12 9 -26 25 l-25 30 6 -37 c6 -36 5 -38 -19 -38 -14 0 -27 7 -31 15
-7 20 -24 19 -22 -2 1 -11 -9 -19 -31 -24 -40 -8 -44 -4 -32 28 5 13 9 32 9
41 -1 15 -3 15 -15 -2 -8 -11 -15 -28 -15 -39 0 -12 -6 -17 -17 -15 -11 2 -17
11 -15 21 2 14 -2 16 -22 11 -31 -7 -45 17 -25 43 12 15 12 16 -3 10 -22 -8
-33 10 -17 29 9 11 8 18 -5 33 -22 24 -9 59 43 121 49 58 66 92 82 165 8 38
28 82 54 120 23 33 51 78 64 100 41 72 114 113 208 117 40 2 49 -2 75 -31 24
-27 39 -35 75 -37 33 -3 54 -12 79 -34 19 -16 43 -30 53 -30 10 0 24 -6 30
-14 33 -39 110 -26 187 32 30 23 80 47 120 59 82 25 199 47 211 40 5 -3 35 -7
68 -8 137 -6 287 -63 360 -136 16 -16 21 -16 64 -1 25 9 61 19 79 23 17 4 50
21 71 38 97 80 118 94 175 119 65 28 93 31 166 19z m1418 -1427 c-3 -59 -9
-86 -21 -98 -9 -10 -20 -23 -24 -31 -5 -9 -30 -16 -63 -19 -30 -2 -90 -8 -132
-12 -72 -6 -78 -6 -78 12 -1 17 -2 17 -13 4 -14 -17 -97 -21 -110 -5 -6 6 -10
6 -14 -2 -6 -15 -69 -17 -78 -3 -3 6 -11 10 -16 10 -6 0 -7 -4 -4 -10 4 -6 -5
-10 -19 -10 -14 0 -26 5 -26 11 0 5 -4 8 -9 4 -23 -13 -20 17 3 40 15 14 26
29 26 33 0 4 10 12 23 17 12 6 22 16 22 22 0 15 36 42 62 46 10 1 24 6 30 10
7 4 22 3 34 -4 17 -9 19 -13 8 -20 -11 -7 -11 -9 2 -9 9 0 24 -9 34 -20 23
-26 24 -26 63 11 30 28 33 29 48 14 15 -15 15 -17 -4 -31 -52 -36 -67 -69 -37
-80 8 -4 12 -10 9 -15 -3 -5 2 -6 11 -2 12 4 13 8 4 13 -8 6 -5 12 12 20 13 7
39 30 58 52 24 27 40 37 53 32 22 -6 25 11 3 20 -8 3 -15 11 -15 17 0 8 4 8
14 -1 12 -9 17 -7 28 9 7 12 23 21 35 21 13 0 22 3 22 8 -5 29 3 42 26 42 14
0 26 6 26 13 1 6 4 3 6 -8 3 -10 3 -56 1 -101z m-2955 -483 c23 -17 119 -58
212 -92 166 -61 172 -62 270 -62 105 1 257 28 351 62 28 11 55 16 60 13 17
-12 102 -131 135 -190 18 -31 68 -98 111 -149 105 -124 121 -149 149 -235 24
-72 29 -147 16 -200 -8 -29 -31 -38 -40 -15 -4 8 -12 4 -26 -13 -20 -25 -20
-25 -36 -5 -14 19 -16 19 -26 3 -24 -42 -58 -13 -59 50 0 39 -37 98 -89 141
-76 64 -268 289 -284 333 -2 7 -8 10 -12 5 -14 -12 19 -69 74 -129 55 -60 59
-68 35 -68 -8 0 -12 -4 -9 -10 3 -5 16 -10 28 -10 14 0 40 -21 72 -57 81 -92
85 -99 90 -155 3 -29 8 -75 11 -103 13 -109 9 -137 -28 -215 -37 -75 -136
-190 -204 -238 -20 -14 -32 -30 -31 -44 0 -13 -8 -52 -17 -87 -22 -80 -15
-140 26 -203 16 -26 27 -52 23 -58 -10 -17 -32 -11 -38 10 -7 27 -27 25 -24
-2 1 -17 -4 -24 -20 -26 -15 -2 -23 2 -23 11 0 19 -26 41 -34 28 -4 -5 -2 -12
4 -16 36 -22 -50 -37 -90 -15 -38 21 -159 273 -146 305 3 9 19 15 38 15 43 0
78 10 78 22 0 5 -15 6 -32 3 -18 -4 -85 -7 -148 -8 -96 -1 -126 2 -185 22 -38
12 -76 28 -83 33 -7 6 -15 8 -19 4 -13 -13 23 -36 75 -48 29 -7 52 -16 52 -21
0 -4 -7 -21 -15 -37 -8 -15 -25 -59 -37 -97 -17 -53 -34 -80 -74 -121 -49 -50
-54 -53 -95 -50 -35 2 -43 6 -41 21 4 21 -14 22 -26 1 -13 -24 -46 -13 -50 16
l-4 24 -18 -25 c-18 -22 -20 -23 -35 -8 -15 15 -15 18 9 44 44 48 63 151 51
278 -6 71 -9 77 -39 98 -18 12 -44 38 -57 58 -13 20 -33 48 -45 63 -34 42 -55
128 -55 231 -1 111 7 162 32 203 11 17 19 40 19 50 0 11 15 48 34 84 69 135
103 198 123 226 37 52 63 114 48 114 -8 0 -17 -10 -21 -22 -4 -13 -18 -41 -32
-63 -14 -22 -40 -67 -58 -100 -109 -207 -120 -220 -213 -245 -25 -6 -71 -29
-102 -51 -59 -40 -89 -43 -89 -8 0 23 -15 25 -24 4 -9 -25 -36 -18 -36 10 0
18 -5 25 -20 25 -11 0 -20 4 -20 9 0 5 28 46 63 91 34 45 73 98 87 118 14 20
71 75 128 122 57 48 122 112 145 142 87 115 197 235 215 238 2 0 22 -13 45
-29z"/>
<path d="M4187 3560 c-24 -20 -41 -49 -56 -95 -32 -98 -26 -180 17 -211 22
-16 10 -21 -77 -27 -35 -3 -68 -11 -75 -17 -8 -10 -2 -11 29 -5 137 27 437 18
536 -15 33 -12 65 -18 71 -14 14 9 -6 21 -68 39 l-52 16 20 42 c43 88 18 255
-43 291 -36 22 -91 20 -121 -3 -24 -19 -24 -19 -47 5 -34 35 -90 33 -134 -6z"/>
<path d="M4223 2973 c-64 -81 -83 -145 -59 -192 22 -42 59 -64 106 -64 77 0
127 64 117 151 -5 44 -81 172 -102 171 -5 0 -33 -29 -62 -66z"/>
<path d="M6040 4281 c0 -10 -7 -24 -15 -31 -9 -7 -15 -29 -15 -52 0 -21 -7
-49 -14 -61 -16 -24 -20 -110 -4 -101 5 3 6 -5 3 -19 -12 -45 14 -39 35 8 11
25 25 45 31 45 6 0 8 4 5 8 -3 5 4 18 14 30 11 12 20 27 20 34 1 8 6 6 15 -5
20 -28 48 -17 56 20 6 29 4 32 -20 35 -20 2 -25 8 -23 23 6 30 22 45 48 45 28
0 30 6 10 26 -10 9 -37 14 -80 14 -58 0 -66 -2 -66 -19z"/>
</g>
</svg>
